<mxfile host="65bd71144e">
    <diagram id="PEMxJ51ECX7McnwXs64W" name="光标管理">
        <mxGraphModel dx="1662" dy="863" grid="0" gridSize="10" guides="1" tooltips="1" connect="1" arrows="1" fold="1" page="1" pageScale="1" pageWidth="1169" pageHeight="827" background="none" math="0" shadow="0">
            <root>
                <mxCell id="0" style="fontFamily=Helvetica;fontSize=12;fontColor=default;strokeColor=default;fillColor=default;html=1;"/>
                <mxCell id="1" style="fontFamily=Helvetica;fontSize=12;fontColor=default;strokeColor=default;fillColor=default;html=1;" parent="0"/>
                <mxCell id="52" value="光标管理" style="text;html=1;align=center;verticalAlign=middle;resizable=0;points=[];autosize=1;strokeColor=none;fillColor=none;fontSize=36;fontFamily=Helvetica;fontColor=default;fontStyle=1" parent="1" vertex="1">
                    <mxGeometry x="522" width="154" height="47" as="geometry"/>
                </mxCell>
                <mxCell id="55" value="SingletonMono&amp;lt;T&amp;gt;" style="swimlane;fontStyle=1;align=center;verticalAlign=top;childLayout=stackLayout;horizontal=1;startSize=26;horizontalStack=0;resizeParent=1;resizeParentMax=0;resizeLast=0;collapsible=1;marginBottom=0;fontFamily=Helvetica;fontSize=12;fontColor=default;strokeColor=default;fillColor=default;html=1;" parent="1" vertex="1">
                    <mxGeometry x="512" y="72" width="160" height="138" as="geometry">
                        <mxRectangle x="30" y="20" width="140" height="26" as="alternateBounds"/>
                    </mxGeometry>
                </mxCell>
                <mxCell id="56" value="- instance: T" style="text;strokeColor=none;fillColor=none;align=left;verticalAlign=top;spacingLeft=4;spacingRight=4;overflow=hidden;rotatable=0;points=[[0,0.5],[1,0.5]];portConstraint=eastwest;fontFamily=Helvetica;fontSize=12;fontColor=default;html=1;" parent="55" vertex="1">
                    <mxGeometry y="26" width="160" height="26" as="geometry"/>
                </mxCell>
                <mxCell id="57" value="" style="line;strokeWidth=1;fillColor=none;align=left;verticalAlign=middle;spacingTop=-1;spacingLeft=3;spacingRight=3;rotatable=0;labelPosition=right;points=[];portConstraint=eastwest;fontFamily=Helvetica;fontSize=12;fontColor=default;html=1;" parent="55" vertex="1">
                    <mxGeometry y="52" width="160" height="8" as="geometry"/>
                </mxCell>
                <mxCell id="58" value="+ Instance: T(属性访问器)" style="text;strokeColor=none;fillColor=none;align=left;verticalAlign=top;spacingLeft=4;spacingRight=4;overflow=hidden;rotatable=0;points=[[0,0.5],[1,0.5]];portConstraint=eastwest;fontFamily=Helvetica;fontSize=12;fontColor=default;html=1;fontStyle=4" parent="55" vertex="1">
                    <mxGeometry y="60" width="160" height="26" as="geometry"/>
                </mxCell>
                <mxCell id="59" value="# Awake():&amp;nbsp;void" style="text;strokeColor=none;fillColor=none;align=left;verticalAlign=top;spacingLeft=4;spacingRight=4;overflow=hidden;rotatable=0;points=[[0,0.5],[1,0.5]];portConstraint=eastwest;fontFamily=Helvetica;fontSize=12;fontColor=default;html=1;" parent="55" vertex="1">
                    <mxGeometry y="86" width="160" height="26" as="geometry"/>
                </mxCell>
                <mxCell id="60" value="#&amp;nbsp;&lt;span&gt;Init()&lt;/span&gt;: virtual void" style="text;strokeColor=none;fillColor=none;align=left;verticalAlign=top;spacingLeft=4;spacingRight=4;overflow=hidden;rotatable=0;points=[[0,0.5],[1,0.5]];portConstraint=eastwest;fontFamily=Helvetica;fontSize=12;fontColor=default;html=1;fontStyle=2" parent="55" vertex="1">
                    <mxGeometry y="112" width="160" height="26" as="geometry"/>
                </mxCell>
                <mxCell id="62" value="继承" style="endArrow=block;endSize=16;endFill=0;html=1;fontFamily=Helvetica;fontSize=12;fontColor=default;" parent="1" source="71" target="55" edge="1">
                    <mxGeometry width="160" relative="1" as="geometry">
                        <mxPoint x="762" y="124.62264150943395" as="sourcePoint"/>
                        <mxPoint x="722" y="122" as="targetPoint"/>
                    </mxGeometry>
                </mxCell>
                <mxCell id="71" value="CursorManager：SingletonMono&amp;lt;CursorManager&amp;gt;" style="swimlane;fontStyle=1;align=center;verticalAlign=top;childLayout=stackLayout;horizontal=1;startSize=26;horizontalStack=0;resizeParent=1;resizeParentMax=0;resizeLast=0;collapsible=1;marginBottom=0;fontFamily=Helvetica;fontSize=12;fontColor=default;strokeColor=default;fillColor=default;html=1;" parent="1" vertex="1">
                    <mxGeometry x="402" y="282" width="380" height="320" as="geometry">
                        <mxRectangle x="-30" y="510" width="320" height="26" as="alternateBounds"/>
                    </mxGeometry>
                </mxCell>
                <mxCell id="72" value="- cursorList: List&amp;lt;CursorAnimation&amp;gt;" style="text;strokeColor=none;fillColor=none;align=left;verticalAlign=top;spacingLeft=4;spacingRight=4;overflow=hidden;rotatable=0;points=[[0,0.5],[1,0.5]];portConstraint=eastwest;fontFamily=Helvetica;fontSize=12;fontColor=default;html=1;" parent="71" vertex="1">
                    <mxGeometry y="26" width="380" height="26" as="geometry"/>
                </mxCell>
                <mxCell id="75" value="- cursorAnimation: CursorAnimation" style="text;strokeColor=none;fillColor=none;align=left;verticalAlign=top;spacingLeft=4;spacingRight=4;overflow=hidden;rotatable=0;points=[[0,0.5],[1,0.5]];portConstraint=eastwest;fontFamily=Helvetica;fontSize=12;fontColor=default;html=1;" parent="71" vertex="1">
                    <mxGeometry y="52" width="380" height="26" as="geometry"/>
                </mxCell>
                <mxCell id="76" value="- currentFrame: int" style="text;strokeColor=none;fillColor=none;align=left;verticalAlign=top;spacingLeft=4;spacingRight=4;overflow=hidden;rotatable=0;points=[[0,0.5],[1,0.5]];portConstraint=eastwest;fontFamily=Helvetica;fontSize=12;fontColor=default;html=1;" parent="71" vertex="1">
                    <mxGeometry y="78" width="380" height="26" as="geometry"/>
                </mxCell>
                <mxCell id="77" value="- frameTimer: float" style="text;strokeColor=none;fillColor=none;align=left;verticalAlign=top;spacingLeft=4;spacingRight=4;overflow=hidden;rotatable=0;points=[[0,0.5],[1,0.5]];portConstraint=eastwest;fontFamily=Helvetica;fontSize=12;fontColor=default;html=1;" parent="71" vertex="1">
                    <mxGeometry y="104" width="380" height="26" as="geometry"/>
                </mxCell>
                <mxCell id="78" value="- frameCount: int" style="text;strokeColor=none;fillColor=none;align=left;verticalAlign=top;spacingLeft=4;spacingRight=4;overflow=hidden;rotatable=0;points=[[0,0.5],[1,0.5]];portConstraint=eastwest;fontFamily=Helvetica;fontSize=12;fontColor=default;html=1;" parent="71" vertex="1">
                    <mxGeometry y="130" width="380" height="26" as="geometry"/>
                </mxCell>
                <mxCell id="73" value="" style="line;strokeWidth=1;fillColor=none;align=left;verticalAlign=middle;spacingTop=-1;spacingLeft=3;spacingRight=3;rotatable=0;labelPosition=right;points=[];portConstraint=eastwest;fontFamily=Helvetica;fontSize=12;fontColor=default;html=1;" parent="71" vertex="1">
                    <mxGeometry y="156" width="380" height="8" as="geometry"/>
                </mxCell>
                <mxCell id="74" value="# Init():&amp;nbsp;override void" style="text;strokeColor=none;fillColor=none;align=left;verticalAlign=top;spacingLeft=4;spacingRight=4;overflow=hidden;rotatable=0;points=[[0,0.5],[1,0.5]];portConstraint=eastwest;fontFamily=Helvetica;fontSize=12;fontColor=default;html=1;fontStyle=2" parent="71" vertex="1">
                    <mxGeometry y="164" width="380" height="26" as="geometry"/>
                </mxCell>
                <mxCell id="79" value="- Update: void" style="text;strokeColor=none;fillColor=none;align=left;verticalAlign=top;spacingLeft=4;spacingRight=4;overflow=hidden;rotatable=0;points=[[0,0.5],[1,0.5]];portConstraint=eastwest;fontFamily=Helvetica;fontSize=12;fontColor=default;html=1;" parent="71" vertex="1">
                    <mxGeometry y="190" width="380" height="26" as="geometry"/>
                </mxCell>
                <mxCell id="86" value="+ SetActiveCursorType(ECursorType cursorType): void" style="text;strokeColor=none;fillColor=none;align=left;verticalAlign=top;spacingLeft=4;spacingRight=4;overflow=hidden;rotatable=0;points=[[0,0.5],[1,0.5]];portConstraint=eastwest;fontFamily=Helvetica;fontSize=12;fontColor=default;html=1;labelBackgroundColor=none;" parent="71" vertex="1">
                    <mxGeometry y="216" width="380" height="26" as="geometry"/>
                </mxCell>
                <mxCell id="87" value="- GetCursorAnimation(ECursorType cursorType): CursorAnimation" style="text;strokeColor=none;fillColor=none;align=left;verticalAlign=top;spacingLeft=4;spacingRight=4;overflow=hidden;rotatable=0;points=[[0,0.5],[1,0.5]];portConstraint=eastwest;fontFamily=Helvetica;fontSize=12;fontColor=default;html=1;" parent="71" vertex="1">
                    <mxGeometry y="242" width="380" height="26" as="geometry"/>
                </mxCell>
                <mxCell id="88" value="- SetActiveCursorAnimation(CursorAnimation cursorAnimation): void" style="text;strokeColor=none;fillColor=none;align=left;verticalAlign=top;spacingLeft=4;spacingRight=4;overflow=hidden;rotatable=0;points=[[0,0.5],[1,0.5]];portConstraint=eastwest;fontFamily=Helvetica;fontSize=12;fontColor=default;html=1;" parent="71" vertex="1">
                    <mxGeometry y="268" width="380" height="26" as="geometry"/>
                </mxCell>
                <mxCell id="146" value="+ CursorAnimation: class" style="text;strokeColor=none;fillColor=none;align=left;verticalAlign=top;spacingLeft=4;spacingRight=4;overflow=hidden;rotatable=0;points=[[0,0.5],[1,0.5]];portConstraint=eastwest;fontFamily=Helvetica;fontSize=12;fontColor=default;html=1;" parent="71" vertex="1">
                    <mxGeometry y="294" width="380" height="26" as="geometry"/>
                </mxCell>
                <mxCell id="291" value="" style="endArrow=block;startArrow=block;endFill=1;startFill=1;html=1;rounded=1;labelBackgroundColor=default;fontFamily=Helvetica;fontSize=12;fontColor=default;endSize=12;strokeColor=default;shape=connector;" parent="71" source="88" target="86" edge="1">
                    <mxGeometry width="160" relative="1" as="geometry">
                        <mxPoint x="283" y="265" as="sourcePoint"/>
                        <mxPoint x="443" y="265" as="targetPoint"/>
                        <Array as="points">
                            <mxPoint x="422" y="281"/>
                            <mxPoint x="422" y="229"/>
                        </Array>
                    </mxGeometry>
                </mxCell>
                <mxCell id="292" value="调用" style="edgeLabel;html=1;align=center;verticalAlign=middle;resizable=0;points=[];fontSize=12;fontFamily=Helvetica;fontColor=default;" parent="291" vertex="1" connectable="0">
                    <mxGeometry x="0.0946" y="-1" relative="1" as="geometry">
                        <mxPoint x="-1" y="6" as="offset"/>
                    </mxGeometry>
                </mxCell>
                <mxCell id="295" value="" style="endArrow=block;startArrow=block;endFill=1;startFill=1;html=1;rounded=1;labelBackgroundColor=default;fontFamily=Helvetica;fontSize=12;fontColor=default;endSize=12;strokeColor=default;shape=connector;" parent="71" source="87" target="88" edge="1">
                    <mxGeometry width="160" relative="1" as="geometry">
                        <mxPoint x="26" y="222" as="sourcePoint"/>
                        <mxPoint x="186" y="222" as="targetPoint"/>
                        <Array as="points">
                            <mxPoint x="-28" y="255"/>
                            <mxPoint x="-28" y="281"/>
                        </Array>
                    </mxGeometry>
                </mxCell>
                <mxCell id="296" value="调用" style="edgeLabel;html=1;align=center;verticalAlign=middle;resizable=0;points=[];fontSize=12;fontFamily=Helvetica;fontColor=default;" parent="295" vertex="1" connectable="0">
                    <mxGeometry x="-0.1304" y="2" relative="1" as="geometry">
                        <mxPoint y="5" as="offset"/>
                    </mxGeometry>
                </mxCell>
                <mxCell id="100" value="&lt;span style=&quot;font-weight: 400&quot;&gt;&amp;nbsp;+ CursorAnimation: class&lt;/span&gt;" style="swimlane;fontStyle=1;align=left;verticalAlign=top;childLayout=stackLayout;horizontal=1;startSize=26;horizontalStack=0;resizeParent=1;resizeParentMax=0;resizeLast=0;collapsible=1;marginBottom=0;fontFamily=Helvetica;fontSize=12;fontColor=default;strokeColor=default;fillColor=default;html=1;shadow=0;" parent="1" vertex="1">
                    <mxGeometry x="405" y="672" width="380" height="130" as="geometry">
                        <mxRectangle x="395" y="905" width="380" height="26" as="alternateBounds"/>
                    </mxGeometry>
                </mxCell>
                <mxCell id="101" value="+ cursorType: ECursorType" style="text;strokeColor=none;fillColor=none;align=left;verticalAlign=top;spacingLeft=4;spacingRight=4;overflow=hidden;rotatable=0;points=[[0,0.5],[1,0.5]];portConstraint=eastwest;fontFamily=Helvetica;fontSize=12;fontColor=default;html=1;" parent="100" vertex="1">
                    <mxGeometry y="26" width="380" height="26" as="geometry"/>
                </mxCell>
                <mxCell id="109" value="+ textureArray: Texture2D[]" style="text;strokeColor=none;fillColor=none;align=left;verticalAlign=top;spacingLeft=4;spacingRight=4;overflow=hidden;rotatable=0;points=[[0,0.5],[1,0.5]];portConstraint=eastwest;fontFamily=Helvetica;fontSize=12;fontColor=default;html=1;" parent="100" vertex="1">
                    <mxGeometry y="52" width="380" height="26" as="geometry"/>
                </mxCell>
                <mxCell id="110" value="+ frameRate:&amp;nbsp;float" style="text;strokeColor=none;fillColor=none;align=left;verticalAlign=top;spacingLeft=4;spacingRight=4;overflow=hidden;rotatable=0;points=[[0,0.5],[1,0.5]];portConstraint=eastwest;fontFamily=Helvetica;fontSize=12;fontColor=default;html=1;" parent="100" vertex="1">
                    <mxGeometry y="78" width="380" height="26" as="geometry"/>
                </mxCell>
                <mxCell id="111" value="+ offset:&amp;nbsp;Vector2" style="text;strokeColor=none;fillColor=none;align=left;verticalAlign=top;spacingLeft=4;spacingRight=4;overflow=hidden;rotatable=0;points=[[0,0.5],[1,0.5]];portConstraint=eastwest;fontFamily=Helvetica;fontSize=12;fontColor=default;html=1;" parent="100" vertex="1">
                    <mxGeometry y="104" width="380" height="26" as="geometry"/>
                </mxCell>
                <mxCell id="155" style="edgeStyle=none;html=1;fontFamily=Helvetica;fontSize=12;fontColor=default;" parent="1" source="128" target="101" edge="1">
                    <mxGeometry relative="1" as="geometry"/>
                </mxCell>
                <mxCell id="156" value="枚举" style="edgeLabel;html=1;align=center;verticalAlign=middle;resizable=0;points=[];fontSize=12;fontFamily=Helvetica;fontColor=default;" parent="155" vertex="1" connectable="0">
                    <mxGeometry x="0.132" y="2" relative="1" as="geometry">
                        <mxPoint as="offset"/>
                    </mxGeometry>
                </mxCell>
                <object label="&lt;div style=&quot;text-align: left&quot;&gt;&lt;span style=&quot;font-weight: 400&quot;&gt;«enumeration&lt;/span&gt;&lt;span style=&quot;font-weight: 400&quot;&gt;»&lt;/span&gt;&lt;/div&gt;&lt;span style=&quot;font-weight: 400 ; text-align: left&quot;&gt;ECursorType&lt;/span&gt;" Grab="" id="128">
                    <mxCell style="swimlane;fontStyle=1;align=center;verticalAlign=top;childLayout=stackLayout;horizontal=1;startSize=50;horizontalStack=0;resizeParent=1;resizeParentMax=0;resizeLast=0;collapsible=1;marginBottom=0;fontFamily=Helvetica;fontSize=12;fontColor=default;strokeColor=default;fillColor=default;html=1;glass=0;" parent="1" vertex="1">
                        <mxGeometry x="939" y="612" width="160" height="200" as="geometry"/>
                    </mxCell>
                </object>
                <object label="Arrow" Grab="1111" Select="asdasd" id="129">
                    <mxCell style="text;strokeColor=none;fillColor=none;align=left;verticalAlign=top;spacingLeft=4;spacingRight=4;overflow=hidden;rotatable=0;points=[[0,0.5],[1,0.5]];portConstraint=eastwest;fontFamily=Helvetica;fontSize=12;fontColor=default;html=1;labelBackgroundColor=none;labelBorderColor=none;" parent="128" vertex="1">
                        <mxGeometry y="50" width="160" height="30" as="geometry"/>
                    </mxCell>
                </object>
                <object label="Grab" Grab="1111" Select="asdasd" id="149">
                    <mxCell style="text;strokeColor=none;fillColor=none;align=left;verticalAlign=top;spacingLeft=4;spacingRight=4;overflow=hidden;rotatable=0;points=[[0,0.5],[1,0.5]];portConstraint=eastwest;fontFamily=Helvetica;fontSize=12;fontColor=default;html=1;labelBackgroundColor=none;labelBorderColor=none;" parent="128" vertex="1">
                        <mxGeometry y="80" width="160" height="30" as="geometry"/>
                    </mxCell>
                </object>
                <object label="Select" Grab="1111" Select="asdasd" id="151">
                    <mxCell style="text;strokeColor=none;fillColor=none;align=left;verticalAlign=top;spacingLeft=4;spacingRight=4;overflow=hidden;rotatable=0;points=[[0,0.5],[1,0.5]];portConstraint=eastwest;fontFamily=Helvetica;fontSize=12;fontColor=default;html=1;labelBackgroundColor=none;labelBorderColor=none;" parent="128" vertex="1">
                        <mxGeometry y="110" width="160" height="30" as="geometry"/>
                    </mxCell>
                </object>
                <object label="Attack" Grab="1111" Select="asdasd" id="152">
                    <mxCell style="text;strokeColor=none;fillColor=none;align=left;verticalAlign=top;spacingLeft=4;spacingRight=4;overflow=hidden;rotatable=0;points=[[0,0.5],[1,0.5]];portConstraint=eastwest;fontFamily=Helvetica;fontSize=12;fontColor=default;html=1;labelBackgroundColor=none;labelBorderColor=none;" parent="128" vertex="1">
                        <mxGeometry y="140" width="160" height="30" as="geometry"/>
                    </mxCell>
                </object>
                <object label="Move" Grab="1111" Select="asdasd" id="153">
                    <mxCell style="text;strokeColor=none;fillColor=none;align=left;verticalAlign=top;spacingLeft=4;spacingRight=4;overflow=hidden;rotatable=0;points=[[0,0.5],[1,0.5]];portConstraint=eastwest;fontFamily=Helvetica;fontSize=12;fontColor=default;html=1;labelBackgroundColor=none;labelBorderColor=none;" parent="128" vertex="1">
                        <mxGeometry y="170" width="160" height="30" as="geometry"/>
                    </mxCell>
                </object>
                <mxCell id="147" value="" style="endArrow=open;startArrow=circlePlus;endFill=0;startFill=0;endSize=8;html=1;fontFamily=Helvetica;fontSize=12;fontColor=default;" parent="1" source="100" target="146" edge="1">
                    <mxGeometry width="160" relative="1" as="geometry">
                        <mxPoint x="732" y="612" as="sourcePoint"/>
                        <mxPoint x="892" y="612" as="targetPoint"/>
                    </mxGeometry>
                </mxCell>
                <mxCell id="148" value="内部类" style="edgeLabel;html=1;align=center;verticalAlign=middle;resizable=0;points=[];fontSize=12;fontFamily=Helvetica;fontColor=default;" parent="147" vertex="1" connectable="0">
                    <mxGeometry x="0.3667" y="1" relative="1" as="geometry">
                        <mxPoint x="1" y="8" as="offset"/>
                    </mxGeometry>
                </mxCell>
                <mxCell id="90" value="CursorObject：MonoBehaviour" style="swimlane;fontStyle=1;align=center;verticalAlign=top;childLayout=stackLayout;horizontal=1;startSize=26;horizontalStack=0;resizeParent=1;resizeParentMax=0;resizeLast=0;collapsible=1;marginBottom=0;fontFamily=Helvetica;fontSize=12;fontColor=default;strokeColor=default;fillColor=default;html=1;" parent="1" vertex="1">
                    <mxGeometry x="51" y="426" width="240" height="112" as="geometry"/>
                </mxCell>
                <mxCell id="91" value="- cursorType: ECursorType" style="text;strokeColor=none;fillColor=none;align=left;verticalAlign=top;spacingLeft=4;spacingRight=4;overflow=hidden;rotatable=0;points=[[0,0.5],[1,0.5]];portConstraint=eastwest;fontFamily=Helvetica;fontSize=12;fontColor=default;html=1;" parent="90" vertex="1">
                    <mxGeometry y="26" width="240" height="26" as="geometry"/>
                </mxCell>
                <mxCell id="92" value="" style="line;strokeWidth=1;fillColor=none;align=left;verticalAlign=middle;spacingTop=-1;spacingLeft=3;spacingRight=3;rotatable=0;labelPosition=right;points=[];portConstraint=eastwest;fontFamily=Helvetica;fontSize=12;fontColor=default;html=1;" parent="90" vertex="1">
                    <mxGeometry y="52" width="240" height="8" as="geometry"/>
                </mxCell>
                <mxCell id="93" value="- OnMouseEnter(): void" style="text;strokeColor=none;fillColor=none;align=left;verticalAlign=top;spacingLeft=4;spacingRight=4;overflow=hidden;rotatable=0;points=[[0,0.5],[1,0.5]];portConstraint=eastwest;fontFamily=Helvetica;fontSize=12;fontColor=default;html=1;" parent="90" vertex="1">
                    <mxGeometry y="60" width="240" height="26" as="geometry"/>
                </mxCell>
                <mxCell id="94" value="- OnMouseExit(): void" style="text;strokeColor=none;fillColor=none;align=left;verticalAlign=top;spacingLeft=4;spacingRight=4;overflow=hidden;rotatable=0;points=[[0,0.5],[1,0.5]];portConstraint=eastwest;fontFamily=Helvetica;fontSize=12;fontColor=default;html=1;" parent="90" vertex="1">
                    <mxGeometry y="86" width="240" height="26" as="geometry"/>
                </mxCell>
                <mxCell id="336" style="edgeStyle=none;rounded=1;html=1;labelBackgroundColor=default;fontFamily=Helvetica;fontSize=12;fontColor=default;endArrow=open;endFill=1;strokeColor=default;elbow=vertical;exitX=1;exitY=0.5;exitDx=0;exitDy=0;entryX=0.003;entryY=0.662;entryDx=0;entryDy=0;entryPerimeter=0;" parent="1" source="94" target="86" edge="1">
                    <mxGeometry relative="1" as="geometry">
                        <mxPoint x="401" y="515" as="targetPoint"/>
                        <Array as="points">
                            <mxPoint x="350" y="526"/>
                            <mxPoint x="350" y="515"/>
                            <mxPoint x="359" y="515"/>
                        </Array>
                    </mxGeometry>
                </mxCell>
                <mxCell id="342" style="edgeStyle=none;rounded=1;html=1;labelBackgroundColor=default;fontFamily=Helvetica;fontSize=12;fontColor=default;endArrow=open;endFill=1;strokeColor=default;elbow=vertical;exitX=0.998;exitY=0.593;exitDx=0;exitDy=0;exitPerimeter=0;" edge="1" parent="1" source="93">
                    <mxGeometry relative="1" as="geometry">
                        <mxPoint x="402" y="515" as="targetPoint"/>
                        <mxPoint x="300" y="536" as="sourcePoint"/>
                        <Array as="points">
                            <mxPoint x="349" y="502"/>
                            <mxPoint x="349" y="515"/>
                        </Array>
                    </mxGeometry>
                </mxCell>
            </root>
        </mxGraphModel>
    </diagram>
    <diagram id="0KZwrxguDcIVbSKX3IOV" name="第 2 页">
        <mxGraphModel dx="1665" dy="1000" grid="0" gridSize="10" guides="1" tooltips="1" connect="1" arrows="1" fold="1" page="1" pageScale="1" pageWidth="1169" pageHeight="827" math="0" shadow="0">
            <root>
                <mxCell id="3lfF_CGAALMjeQlLxpjl-0"/>
                <mxCell id="3lfF_CGAALMjeQlLxpjl-1" parent="3lfF_CGAALMjeQlLxpjl-0"/>
            </root>
        </mxGraphModel>
    </diagram>
</mxfile>